<?xml version="1.0" encoding="UTF-8" standalone="no"?>
<!-- Created with Inkscape (http://www.inkscape.org/) -->

<svg
   width="1326.606"
   height="1073.6899"
   viewBox="0 0 1326.606 1073.6899"
   version="1.1"
   id="svg5"
   inkscape:version="1.1.1 (3bf5ae0d25, 2021-09-20)"
   sodipodi:docname="Logo Yeray.svg"
   xmlns:inkscape="http://www.inkscape.org/namespaces/inkscape"
   xmlns:sodipodi="http://sodipodi.sourceforge.net/DTD/sodipodi-0.dtd"
   xmlns="http://www.w3.org/2000/svg"
   xmlns:svg="http://www.w3.org/2000/svg">
  <sodipodi:namedview
     id="namedview7"
     pagecolor="#ffffff"
     bordercolor="#666666"
     borderopacity="1.0"
     inkscape:pageshadow="2"
     inkscape:pageopacity="0.0"
     inkscape:pagecheckerboard="0"
     inkscape:document-units="px"
     showgrid="false"
     inkscape:zoom="0.35904411"
     inkscape:cx="541.71617"
     inkscape:cy="427.52407"
     inkscape:window-width="1920"
     inkscape:window-height="1009"
     inkscape:window-x="-8"
     inkscape:window-y="-8"
     inkscape:window-maximized="1"
     inkscape:current-layer="layer1" />
  <defs
     id="defs2">
    <marker
       style="overflow:visible"
       id="Arrow2Lstart"
       refX="0"
       refY="0"
       orient="auto"
       inkscape:stockid="Arrow2Lstart"
       inkscape:isstock="true">
      <path
         transform="matrix(1.1,0,0,1.1,1.1,0)"
         d="M 8.7185878,4.0337352 -2.2072895,0.01601326 8.7185884,-4.0017078 c -1.7454984,2.3720609 -1.7354408,5.6174519 -6e-7,8.035443 z"
         style="fill:context-stroke;fill-rule:evenodd;stroke:context-stroke;stroke-width:0.625;stroke-linejoin:round"
         id="path21040" />
    </marker>
    <marker
       style="overflow:visible"
       id="Arrow1Lstart"
       refX="0"
       refY="0"
       orient="auto"
       inkscape:stockid="Arrow1Lstart"
       inkscape:isstock="true">
      <path
         transform="matrix(0.8,0,0,0.8,10,0)"
         style="fill:context-stroke;fill-rule:evenodd;stroke:context-stroke;stroke-width:1pt"
         d="M 0,0 5,-5 -12.5,0 5,5 Z"
         id="path21022" />
    </marker>
    <marker
       style="overflow:visible"
       id="Arrow2Lstart-3"
       refX="0"
       refY="0"
       orient="auto"
       inkscape:stockid="Arrow2Lstart"
       inkscape:isstock="true">
      <path
         transform="matrix(1.1,0,0,1.1,1.1,0)"
         d="M 8.7185878,4.0337352 -2.2072895,0.01601326 8.7185884,-4.0017078 c -1.7454984,2.3720609 -1.7354408,5.6174519 -6e-7,8.035443 z"
         style="fill:context-stroke;fill-rule:evenodd;stroke:context-stroke;stroke-width:0.625;stroke-linejoin:round"
         id="path21040-0" />
    </marker>
    <marker
       style="overflow:visible"
       id="Arrow2Lstart-6"
       refX="0"
       refY="0"
       orient="auto"
       inkscape:stockid="Arrow2Lstart"
       inkscape:isstock="true">
      <path
         transform="matrix(1.1,0,0,1.1,1.1,0)"
         d="M 8.7185878,4.0337352 -2.2072895,0.01601326 8.7185884,-4.0017078 c -1.7454984,2.3720609 -1.7354408,5.6174519 -6e-7,8.035443 z"
         style="fill:context-stroke;fill-rule:evenodd;stroke:context-stroke;stroke-width:0.625;stroke-linejoin:round"
         id="path21040-1" />
    </marker>
  </defs>
  <g
     inkscape:label="Capa 1"
     inkscape:groupmode="layer"
     id="layer1">
    <path
       style="fill:none;stroke:#035453;stroke-width:44.1521;stroke-linecap:round;stroke-linejoin:miter;stroke-miterlimit:4;stroke-dasharray:none;stroke-opacity:1"
       d="M 988.54406,22.07605 796.69648,253.40311"
       id="path2384-0-03-4"
       sodipodi:nodetypes="cc" />
    <path
       style="fill:none;stroke:#035453;stroke-width:44.1521;stroke-linecap:round;stroke-linejoin:round;stroke-miterlimit:4;stroke-dasharray:none;stroke-opacity:1"
       d="m 1036.9909,64.254967 132.5852,86.676093 -251.90444,93.56476"
       id="path2518-5-3-4"
       sodipodi:nodetypes="ccc" />
    <path
       style="fill:none;stroke:#008786;stroke-width:44.1521;stroke-linecap:butt;stroke-linejoin:miter;stroke-miterlimit:4;stroke-dasharray:none;stroke-opacity:1"
       d="m 73.380681,297.55276 c 53.743089,-0.0858 59.751019,-27.90755 51.147089,-64.22122"
       id="path12867-0-1-5"
       sodipodi:nodetypes="cc" />
    <path
       style="fill:none;stroke:#035453;stroke-width:44.1521;stroke-linecap:round;stroke-linejoin:round;stroke-miterlimit:4;stroke-dasharray:none;stroke-opacity:1"
       d="m 733.22198,877.33243 0.5814,-376.67884 h 120.55458 l 2.2792,478.46385"
       id="path14625-6-4-7" />
    <path
       style="fill:none;stroke:#035453;stroke-width:44.1521;stroke-linecap:round;stroke-linejoin:round;stroke-miterlimit:4;stroke-dasharray:none;stroke-opacity:1"
       d="m 855.25666,619.73582 h 120.5547 l 3.0423,167.24684"
       id="path14627-4-8-4" />
    <path
       style="fill:none;stroke:#035453;stroke-width:44.1521;stroke-linecap:round;stroke-linejoin:round;stroke-miterlimit:4;stroke-dasharray:none;stroke-opacity:1"
       d="M 978.06416,707.56417 H 1085.58 v 204.95164"
       id="path18146-5-8-1"
       sodipodi:nodetypes="ccc" />
    <path
       style="fill:none;stroke:#008786;stroke-width:44.1521;stroke-linecap:round;stroke-linejoin:round;stroke-miterlimit:4;stroke-dasharray:none;stroke-opacity:1"
       d="M 836.35476,74.796374 617.51668,74.488026 c -94.0513,-0.05372 -125.162,146.521694 -165.3101,156.609784 -20.6272,1.82848 -94.19936,3.98694 -326.55346,2.14027 -31.516639,-0.25036 -65.954489,-0.57476 -103.578689,-0.98337 13.34101,23.3617 19.56981,49.74075 51.30625,65.29837 l 4.67595,5.95111 c 42.215809,50.89248 36.109299,71.19657 51.200839,122.08906 l 62.35913,-15.33169 36.02339,50.05676 54.64547,-40.44274 c 76.54245,19.20369 176.39052,23.33476 207.20642,111.12764 l -284.20429,-13.75058 -58.963,-14.34146 26.92453,99.47799 c 17.19045,45.95361 52.97876,41.74159 94.63425,42.70782 65.78057,1.52944 130.74204,3.28681 193.64571,7.71819 173.8291,14.72023 308.6002,261.19951 329.0223,378.45162 92.37038,-60.93362 158.27598,-140.18929 188.30228,-244.28388 26.53934,56.74314 60.61994,103.98701 107.90494,137.69674 41.9484,29.90547 68.8034,75.11467 85.4862,126.94414 6.0006,-89.90994 14.2588,-166.80065 -17.9357,-256.71064 42.4165,66.69809 45.4491,80.91954 144.8847,122.3087 -55.8983,-45.4417 -36.1267,-184.44776 -101.5024,-252.3809 27.8516,-6.97096 64.6473,-2.01676 106.8741,10.17833 -31.2372,-12.86947 -37.4376,-50.77605 -50.893,-81.42797 -23.8557,-52.52794 -86.6845,-82.78633 -142.4985,-117.05267 49.6048,-0.98058 99.5722,-1.32741 167.945,30.53559 -40.0226,-29.01198 -80.4547,-57.92153 -101.785,-91.60652 -39.2112,-79.57342 -79.6919,-114.73141 -157.7665,-131.04825"
       id="path2382-0-72-3"
       sodipodi:nodetypes="cccscccccccccccccccscccccccccc" />
  </g>
</svg>
